<?xml version="1.0" standalone="no"?>
<!DOCTYPE svg PUBLIC "-//W3C//DTD SVG 20010904//EN" "http://www.w3.org/TR/2001/REC-SVG-20010904/DTD/svg10.dtd">
<!-- Created using Krita: https://krita.org -->
<svg xmlns="http://www.w3.org/2000/svg" 
    xmlns:xlink="http://www.w3.org/1999/xlink"
    xmlns:sodipodi="http://sodipodi.sourceforge.net/DTD/sodipodi-0.dtd"
    width="737.28pt"
    height="737.28pt"
    viewBox="0 0 737.28 737.28">
<defs>
  <linearGradient id="gradient0" gradientUnits="objectBoundingBox" x1="0.122965227056784" y1="0.108505816713254" x2="1" y2="1" spreadMethod="pad">
   <stop stop-color="#e94343" offset="0" stop-opacity="1"/>
   <stop stop-color="#e94343" offset="0.294117647058824" stop-opacity="1"/>
   <stop stop-color="#d7bb43" offset="0.298642533936652" stop-opacity="1"/>
   <stop stop-color="#d7bb43" offset="0.647058823529412" stop-opacity="1"/>
   <stop stop-color="#5fcf57" offset="0.65158371040724" stop-opacity="1"/>
   <stop stop-color="#5bbf4f" offset="1" stop-opacity="1"/>
  </linearGradient>
 </defs>
<rect id="shape0" transform="translate(157.68, 321.84)" fill="#e7cb8f" fill-rule="evenodd" width="425.52" height="177.12"/><path id="shape1" transform="translate(-67.135976790132, -84.1957284968082)" fill="url(#gradient0)" fill-rule="evenodd" stroke="#a2402b" stroke-width="39.6" stroke-linecap="square" stroke-linejoin="round" d="M364.362 115.028L365.078 115.762L365.771 116.51L366.44 117.272L367.086 118.046L367.71 118.834L368.31 119.633L368.887 120.444L369.441 121.266L369.972 122.098L370.48 122.941L370.965 123.794L371.427 124.656L371.865 125.527L372.281 126.406L372.673 127.293L373.043 128.188L373.389 129.09L373.712 129.999L374.012 130.913L374.289 131.833L374.543 132.759L374.774 133.689L374.982 134.624L375.167 135.563L375.328 136.505L375.467 137.449L375.582 138.397L375.674 139.346L375.744 140.297L375.79 141.25L375.813 142.202L375.813 143.155L375.79 144.108L375.744 145.061L375.674 146.012L375.582 146.961L375.467 147.908L375.328 148.853L375.167 149.795L374.982 150.734L374.774 151.669L374.543 152.599L374.289 153.524L374.012 154.445L373.712 155.359L373.389 156.268L373.043 157.17L372.673 158.065L372.281 158.952L371.865 159.831L371.427 160.702L370.965 161.564L370.48 162.417L369.972 163.26L369.441 164.092L368.887 164.914L368.31 165.725L367.71 166.524L367.086 167.311L366.44 168.086L365.771 168.848L365.078 169.596L364.362 170.33L358.323 176.369L563.985 176.369L565.387 176.394L566.777 176.468L568.154 176.589L569.517 176.758L570.865 176.973L572.197 177.233L573.513 177.538L574.811 177.887L576.091 178.28L576.203 178.318L577.096 178.356L578.015 178.417L578.936 178.502L579.859 178.61L580.784 178.741L581.711 178.895L582.637 179.072L583.565 179.272L584.491 179.495L585.417 179.741L586.342 180.01L587.265 180.302L588.186 180.616L589.105 180.954L590.02 181.314L590.931 181.697L591.839 182.103L592.741 182.531L593.639 182.982L594.531 183.456L595.417 183.952L596.297 184.472L597.169 185.013L598.034 185.578L598.891 186.164L599.739 186.774L600.579 187.406L601.409 188.06L602.229 188.737L603.039 189.436L603.838 190.157L604.62 190.896L605.381 191.648L606.121 192.412L606.839 193.188L607.535 193.975L608.21 194.772L608.863 195.58L609.494 196.397L610.103 197.224L610.69 198.06L611.255 198.904L611.798 199.755L612.319 200.614L612.818 201.48L613.294 202.353L613.748 203.231L614.18 204.115L614.589 205.003L614.975 205.896L615.339 206.794L615.68 207.694L615.999 208.598L616.295 209.504L616.567 210.412L616.817 211.322L617.044 212.233L617.248 213.145L617.429 214.057L617.586 214.969L617.721 215.879L617.832 216.789L617.919 217.697L617.983 218.602L618.024 219.505L618.041 220.404L618.034 221.3L618.004 222.192L617.95 223.079L617.872 223.961L617.77 224.838L617.644 225.708L617.494 226.572L617.32 227.429L617.122 228.278L616.9 229.119L616.653 229.952L616.382 230.776L616.086 231.591L615.767 232.395L615.422 233.189L615.053 233.973L614.659 234.745L614.241 235.505L613.797 236.253L613.329 236.988L612.836 237.709L612.318 238.418L611.775 239.111L611.206 239.791L610.613 240.455L508.814 350.665L673.318 350.665L674.746 350.698L676.156 350.796L677.548 350.957L678.921 351.181L680.272 351.466L681.6 351.809L682.903 352.211L684.182 352.668L685.432 353.181L686.655 353.747L687.847 354.365L689.008 355.033L690.135 355.751L691.228 356.516L692.285 357.327L693.305 358.183L694.286 359.082L695.227 360.022L696.126 361.003L696.982 362.023L697.793 363.081L698.558 364.174L699.275 365.301L699.944 366.462L700.562 367.654L701.128 368.876L701.64 370.127L702.091 371.387L702.543 372.242L703.059 373.314L703.534 374.404L703.969 375.512L704.361 376.637L704.71 377.777L705.015 378.933L705.275 380.104L705.49 381.288L705.659 382.486L705.781 383.695L705.854 384.917L705.879 386.149L705.879 606.32L705.854 607.552L705.781 608.774L705.659 609.983L705.49 611.181L705.275 612.365L705.015 613.535L704.71 614.691L704.361 615.832L703.969 616.957L703.534 618.065L703.336 618.519L703.121 619.48L702.76 620.792L702.339 622.077L701.86 623.335L701.323 624.563L700.731 625.761L700.084 626.926L699.386 628.056L698.637 629.151L697.84 630.208L696.995 631.226L696.104 632.203L695.169 633.138L694.192 634.028L693.174 634.873L692.117 635.671L691.023 636.42L689.892 637.118L688.727 637.764L687.53 638.356L686.301 638.893L685.044 639.373L683.758 639.794L682.446 640.155L681.11 640.454L679.751 640.689L678.371 640.859L676.971 640.962L675.553 640.997L251.147 640.997L251.147 714.418L629.265 714.418L629.265 712.503L629.283 711.113L629.334 709.734L629.42 708.365L629.538 707.008L629.689 705.663L629.873 704.33L630.089 703.01L630.335 701.704L630.613 700.412L630.921 699.134L631.259 697.872L631.626 696.626L632.023 695.397L632.447 694.184L632.9 692.989L633.38 691.812L633.887 690.654L634.421 689.516L634.98 688.397L635.565 687.299L636.176 686.222L636.81 685.166L637.469 684.133L638.152 683.122L638.857 682.135L639.585 681.172L640.336 680.233L641.108 679.319L641.901 678.431L642.715 677.569L643.549 676.734L644.402 675.926L645.275 675.146L646.167 674.395L647.077 673.673L648.005 672.98L648.95 672.318L649.912 671.686L650.89 671.086L651.885 670.518L652.894 669.982L653.919 669.479L654.957 669.01L656.01 668.575L657.076 668.175L658.155 667.811L659.247 667.482L660.35 667.19L661.465 666.935L662.592 666.717L663.728 666.538L664.875 666.398L666.031 666.297L667.196 666.236L668.37 666.216L669.544 666.236L670.709 666.297L671.865 666.398L673.012 666.538L674.149 666.717L675.275 666.935L676.39 667.19L677.493 667.482L678.585 667.811L679.664 668.175L680.73 668.575L681.783 669.01L682.822 669.479L683.846 669.982L684.856 670.518L685.85 671.086L686.828 671.686L687.79 672.318L688.735 672.98L689.663 673.673L690.573 674.395L691.465 675.146L692.338 675.926L693.192 676.734L694.026 677.569L694.84 678.431L695.633 679.319L696.405 680.233L697.155 681.172L697.883 682.135L698.589 683.122L699.271 684.133L699.93 685.166L700.565 686.222L701.175 687.299L701.76 688.397L702.32 689.516L702.853 690.654L703.36 691.812L703.84 692.989L704.293 694.184L704.718 695.397L705.114 696.626L705.481 697.872L705.819 699.134L706.127 700.412L706.405 701.704L706.652 703.01L706.867 704.33L707.051 705.663L707.202 707.008L707.321 708.365L707.406 709.734L707.458 711.113L707.475 712.503L707.475 745.899L707.458 747.289L707.406 748.668L707.321 750.037L707.202 751.394L707.051 752.739L706.867 754.072L706.652 755.392L706.405 756.698L706.127 757.99L705.819 759.268L705.481 760.53L705.114 761.776L704.718 763.005L704.293 764.218L703.84 765.413L703.36 766.589L703.331 766.656L703.128 767.904L702.843 769.255L702.5 770.583L702.098 771.887L701.64 773.165L701.128 774.416L700.562 775.638L699.944 776.83L699.275 777.991L698.558 779.118L697.793 780.212L696.982 781.269L696.126 782.289L695.227 783.27L694.286 784.21L693.305 785.109L692.285 785.965L691.228 786.776L690.135 787.541L689.008 788.259L687.847 788.927L686.655 789.545L685.432 790.111L684.182 790.624L682.903 791.081L681.6 791.483L680.272 791.826L678.921 792.111L677.548 792.335L676.156 792.496L674.746 792.594L673.318 792.627L204.062 792.627L202.634 792.594L201.224 792.496L199.831 792.335L198.459 792.111L197.108 791.826L195.78 791.483L194.476 791.081L193.198 790.624L191.947 790.111L190.725 789.545L189.533 788.927L188.372 788.259L187.245 787.541L186.152 786.776L185.094 785.965L184.075 785.109L183.094 784.21L182.153 783.27L181.254 782.289L180.398 781.269L179.587 780.212L178.822 779.118L178.104 777.991L177.436 776.83L176.818 775.638L176.252 774.416L175.74 773.165L175.282 771.887L174.88 770.583L174.537 769.255L174.252 767.904L174.028 766.532L173.867 765.139L173.769 763.729L173.743 762.615L173.601 762.032L173.365 760.847L173.179 759.646L173.046 758.433L172.965 757.206L172.938 755.967L172.938 381.1L172.965 379.862L173.046 378.635L173.179 377.421L173.365 376.221L173.601 375.035L173.886 373.866L174.221 372.712L174.603 371.577L175.031 370.459L175.506 369.36L176.025 368.282L176.588 367.224L177.193 366.188L177.841 365.175L178.529 364.185L179.257 363.22L180.023 362.28L180.827 361.366L181.668 360.479L182.545 359.619L182.668 359.507L183.094 359.082L184.075 358.183L185.094 357.327L186.152 356.516L187.245 355.751L188.372 355.033L189.533 354.365L190.725 353.747L191.947 353.181L193.198 352.668L193.727 352.479L194.261 352.26L195.488 351.804L196.738 351.387L198.01 351.01L199.303 350.674L200.616 350.381L201.947 350.13L203.296 349.922L204.662 349.76L206.044 349.642L207.44 349.571L208.85 349.547L215.235 349.547L216.645 349.571L218.041 349.642L219.423 349.76L220.789 349.922L222.138 350.13L223.469 350.381L224.738 350.665L406.315 350.665L406.46 350.174L406.731 349.35L407.027 348.536L407.347 347.731L407.691 346.937L408.06 346.154L408.454 345.382L408.873 344.622L409.316 343.874L409.784 343.139L410.277 342.417L410.795 341.709L411.339 341.015L411.907 340.336L412.5 339.672L491.099 254.579L313.395 254.579L311.993 254.554L310.603 254.481L309.226 254.359L307.863 254.19L306.515 253.975L305.183 253.715L303.867 253.41L302.569 253.061L301.289 252.669L300.028 252.234L298.787 251.759L297.566 251.243L296.368 250.687L295.191 250.092L294.038 249.459L292.908 248.789L291.804 248.083L290.725 247.34L289.672 246.564L288.81 245.882L187.169 347.523L186.435 348.239L185.686 348.932L184.925 349.601L184.15 350.248L183.363 350.871L182.564 351.471L181.753 352.048L180.931 352.602L180.099 353.133L179.256 353.641L178.403 354.126L177.541 354.588L176.67 355.026L175.791 355.442L174.903 355.834L174.009 356.204L173.107 356.55L172.198 356.873L171.284 357.173L170.363 357.45L169.438 357.704L168.507 357.935L167.573 358.143L166.634 358.328L165.692 358.489L164.747 358.628L163.8 358.743L162.85 358.836L161.899 358.905L160.947 358.951L159.994 358.974L159.041 358.974L158.088 358.951L157.136 358.905L156.185 358.836L155.236 358.743L154.288 358.628L153.343 358.489L152.401 358.328L151.463 358.143L150.528 357.935L149.598 357.704L148.672 357.45L147.752 357.173L146.837 356.873L145.929 356.55L145.027 356.204L144.132 355.834L143.245 355.442L142.366 355.026L141.495 354.588L140.633 354.126L139.78 353.641L138.937 353.133L138.104 352.602L137.282 352.048L136.472 351.471L135.672 350.871L134.885 350.248L134.111 349.601L133.349 348.932L132.601 348.239L131.867 347.523L131.151 346.789L130.458 346.041L129.789 345.279L129.142 344.505L128.519 343.718L127.919 342.918L127.342 342.108L126.788 341.286L126.257 340.453L125.749 339.61L125.264 338.757L124.802 337.895L124.364 337.024L123.948 336.145L123.556 335.258L123.186 334.363L122.84 333.461L122.517 332.553L122.217 331.638L121.94 330.718L121.686 329.792L121.455 328.862L121.247 327.927L121.062 326.989L120.901 326.047L120.762 325.102L120.647 324.154L120.554 323.205L120.485 322.254L120.439 321.302L120.416 320.349L120.416 319.396L120.439 318.443L120.485 317.491L120.554 316.54L120.647 315.59L120.762 314.643L120.901 313.698L121.062 312.756L121.247 311.817L121.455 310.883L121.686 309.952L121.94 309.027L122.217 308.107L122.517 307.192L122.84 306.283L123.186 305.382L123.556 304.487L123.948 303.599L124.364 302.72L124.802 301.849L125.264 300.987L125.749 300.134L126.257 299.292L126.788 298.459L127.342 297.637L127.919 296.826L128.519 296.027L129.142 295.24L129.789 294.465L130.458 293.704L131.151 292.955L131.867 292.221L309.06 115.028L309.794 114.312L310.542 113.62L311.304 112.95L312.079 112.304L312.866 111.68L313.665 111.08L314.476 110.503L315.298 109.949L316.13 109.418L316.973 108.91L317.826 108.425L318.688 107.963L319.559 107.525L320.438 107.109L321.326 106.717L322.22 106.347L323.122 106.001L324.031 105.678L324.945 105.378L325.866 105.101L326.791 104.847L327.722 104.616L328.656 104.408L329.595 104.224L330.537 104.062L331.482 103.923L332.429 103.808L333.378 103.716L334.33 103.646L335.282 103.6L336.235 103.577L337.188 103.577L338.141 103.6L339.093 103.646L340.044 103.716L340.993 103.808L341.941 103.923L342.886 104.062L343.828 104.224L344.766 104.408L345.701 104.616L346.631 104.847L347.557 105.101L348.477 105.378L349.392 105.678L350.3 106.001L351.202 106.347L352.097 106.717L352.984 107.109L353.863 107.525L354.734 107.963L355.596 108.425L356.449 108.91L357.292 109.418L358.125 109.949L358.946 110.503L359.757 111.08L360.556 111.68L361.344 112.304L362.118 112.95L362.88 113.62L363.628 114.312L364.362 115.028M251.147 562.788L399.585 562.788L399.585 428.874L251.147 428.874L251.147 562.788M477.795 562.788L627.669 562.788L627.669 428.874L477.795 428.874L477.795 562.788" sodipodi:nodetypes="ccccccccccccccccccccccccccccccccccccccccccccccccccccccccccccccccccccccccccccccccccccccccccccccccccccccccccccccccccccccccccccccccccccccccccccccccccccccccccccccccccccccccccccccccccccccccccccccccccccccccccccccccccccccccccccccccccccccccccccccccccccccccccccccccccccccccccccccccccccccccccccccccccccccccccccccccccccccccccccccccccccccccccccccccccccccccccccccccccccccccccccccccccccccccccccccccccccccccccccccccccccccccccccccccccccccccccccccccccccccccccccccccccccccccccccccccccccccccccccccccccccccccccccccccccccccccccccccccccccccccccccccccccccccccccccccccccccccccccccccccccccccccccccccccccccccccccccccccccccccccccccccccccccccccccccccccccccccccccccccccccccccccccccccccccccccccccccccccccccccccccccccccccccccccccccccccccccccccccccccccccccccccccccccccccccccccccccc"/>
</svg>
